<?xml version="1.0" encoding="utf-8"?>
<!-- Generator: Adobe Illustrator 23.0.1, SVG Export Plug-In . SVG Version: 6.00 Build 0)  -->
<svg version="1.1" id="Warstwa_1" xmlns="http://www.w3.org/2000/svg" xmlns:xlink="http://www.w3.org/1999/xlink" x="0px" y="0px"
	 viewBox="0 0 707.1 200" style="enable-background:new 0 0 707.1 200;" xml:space="preserve">
<style type="text/css">
	.st0{fill:#ED1C24;}
	.st1{fill:#FFFFFF;}
	.st2{opacity:4.000000e-02;stroke:#FFFFFF;stroke-miterlimit:10;enable-background:new    ;}
	.st3{fill-opacity:0;}
	.st4{opacity:8.000000e-02;stroke:#FFFFFF;stroke-miterlimit:10;enable-background:new    ;}
	.st5{fill:#494949;}
</style>
<polygon class="st0" points="0,150 0,50 86.6,0 173.2,50 173.2,150 86.6,200 "/>
<polygon class="st1" points="85.6,133.3 56.7,116.7 56.7,83.3 85.6,66.7 114.5,83.3 143.3,66.7 85.6,33.3 27.9,66.7 27.9,133.3 
	85.6,166.7 143.3,133.3 114.5,116.7 "/>
<polygon class="st2" points="0,50 86.6,100 86.6,0 "/>
<polygon class="st2" points="0,150 86.6,200 86.6,100 "/>
<polygon class="st3" points="85.6,100 -1,50 -1,150 "/>
<polygon class="st4" points="86.6,100 173.2,150 173.2,50 "/>
<polygon class="st4" points="173.2,150 86.6,100 86.6,200 "/>
<polygon class="st4" points="173.2,50 86.6,0 86.6,100 "/>
<path class="st5" d="M283.4,169.3c-16.8,0-31.2-4.9-43.1-14.7c-12.6-10.4-18.9-23.9-18.9-40.5c0-19.5,6.1-37.3,18.2-53.3
	c13.6-18.2,30.8-27.1,51.5-27.1c19.9,0,34.8,4.6,44.7,13.8c9.9,9.2,14.9,22.9,14.9,41.4c0,19.5-5.6,37.2-16.7,53
	C321.1,160.2,304.2,169.3,283.4,169.3z M291.1,57c-12.8,0-23.6,6.2-32.7,18.6c-8.5,11.5-12.8,24.5-12.8,38.6c0,9.5,3.7,17.3,11,23.2
	c7.1,5.8,16,8.6,26.7,8.6c12.5,0,23-6.2,31.3-18.6c7.7-11.2,11.5-24.2,11.5-38.5c0-12.1-2.7-20.5-8-25.1
	C313.1,59.3,304.1,57,291.1,57L291.1,57z"/>
<path class="st5" d="M450.8,53.7c-1.2,0-2.5-0.1-3.6-0.6c-8.8-2.4-17.8-3.7-27-3.7c-4.6,0-9.2,0.4-13.7,1c-5.3,0.7-10.5,1.7-15.7,3
	c0,7.6-0.2,18.9-0.7,34c3.2-0.3,14.4-1.3,33.4-3.2c10.9-1.2,17.8-1.6,20.7-1.6c3.2,0,6.3,1.2,8.7,3.2c2.4,2.2,3.6,5,3.6,8.5
	c0,6.8-3.6,10.7-10.9,11.7c-4.6,0.3-11.4,0.9-20.4,1.7c-8,0.9-20.3,2-36.6,3.3c-0.4,7.3-0.6,13.1-0.6,17.6c0,11.2,0.6,17.6,2,19.2
	c0.6,0.7,4.2,1.2,10.8,1.2c3.6,0,8.9-0.1,16-0.3c7.2-0.1,12.5-0.3,16-0.3c1.7,0,3.3-0.3,5.1-0.6c1.6-0.3,3.3-0.4,5-0.6
	c3.1-0.1,6.1,0.9,8.4,2.9c2.7,2.2,4,5,4,8.9c0,6.5-3.3,10.2-10,11.5c-5.7,1.2-17.6,1.6-35.5,1.6c-18.6,0-30.7-2.6-36.4-7.6
	c-6.2-5.5-9.3-17.6-9.3-36c0-7.6,0.5-19.2,1.6-34.6s1.6-26.9,1.6-34.6c-0.1-3-0.4-5.9-0.9-8.9c-0.5-2.9-0.7-5.9-0.9-8.9
	c0-8.6,4-13.1,12-13.1c2.5,0,5,0.7,6.9,2.2c6.2-1.6,12.5-2.9,18.8-3.7c5.6-0.9,11.3-1.2,16.8-1.3c14.4,0,25.9,1.7,34.4,5
	c5.2,2,7.9,5.6,7.9,11c0,2.9-1.1,5.8-3.1,7.9C457.3,52.4,454.3,53.9,450.8,53.7z"/>
<polygon class="st1" points="114.5,116.7 114.5,83.3 143.3,66.7 143.3,133.3 "/>
<path class="st5" d="M514.2,169.3c-14.5,0-25.9-3.2-34.2-9.7c-7.1-5.3-10.5-11.7-10.5-18.7c0-3.6,1.1-6.6,3.2-8.9s5.2-3.6,9-3.6
	c5.1,0,8.9,2.6,11.3,7.9c3.2,7.1,10.6,10.5,22,10.5c9.9,0,19.6-2.2,28.5-6.5c9.5-4.5,14.2-9.2,14.2-14.6c0-7.2-3-12-8.9-14.3
	c-4.2-1.7-12.6-2.6-25.4-2.9c-9.9-0.3-18.7-2.2-26.5-5.6c-10.5-4.8-15.7-11.5-15.6-20.5c0.1-11.2,6.1-21.5,17.8-30.7
	c11.8-9.2,24.5-14,38.6-14c5.6,0,12.5,1.3,20.7,3.9c10.2,3.2,15.4,6.9,15.4,11.1c0,2.9-1.1,5.8-3.1,7.9c-2.2,2.6-5.4,4-8.8,3.9
	c-2.7,0-6.7-0.6-12-1.7c-5.3-1.2-9.4-1.7-12.1-1.7c-7.3,0-14.5,1.9-20.9,5.3c-6.8,3.6-10.3,7.5-10.3,11.7c0,2.2,1,4,3.1,5.3
	c2.1,1.4,5.2,2.4,9.4,3l21.8,1.2c12.6,1,22.7,4.6,30,10.8c8,6.9,12.1,16.4,12.1,28.5c0,14.8-8.4,26.1-25.1,33.6
	C545.2,166.4,530.6,169.3,514.2,169.3z"/>
</svg>
